<svg width="26" height="23" viewBox="0 0 26 23" fill="none" xmlns="http://www.w3.org/2000/svg">
<path d="M22.2075 22.6662H16.5409C16.353 22.6662 16.1728 22.5916 16.04 22.4588C15.9071 22.3259 15.8325 22.1458 15.8325 21.9579V16.2912C15.8325 16.1034 15.7579 15.9232 15.6251 15.7904C15.4922 15.6575 15.312 15.5829 15.1242 15.5829H10.8742C10.6863 15.5829 10.5062 15.6575 10.3733 15.7904C10.2405 15.9232 10.1659 16.1034 10.1659 16.2912V21.9579C10.1659 22.1458 10.0912 22.3259 9.95839 22.4588C9.82555 22.5916 9.64538 22.6662 9.45752 22.6662H3.79085C3.60299 22.6662 3.42282 22.5916 3.28999 22.4588C3.15715 22.3259 3.08252 22.1458 3.08252 21.9579V13.7678C3.16132 13.7142 3.25296 13.6841 3.32468 13.6195L12.9992 5.09071L22.683 13.6306C22.7512 13.6917 22.8406 13.7191 22.9159 13.7722V21.9579C22.9159 22.1458 22.8412 22.3259 22.7084 22.4588C22.5756 22.5916 22.3954 22.6662 22.2075 22.6662Z" fill="black"/>
<path d="M23.6212 12.5672L13.469 3.6125C13.3396 3.49833 13.173 3.43534 13.0004 3.43534C12.8279 3.43534 12.6612 3.49833 12.5318 3.6125L2.37965 12.5676C2.23991 12.6931 2.05606 12.7579 1.86852 12.7479C1.68098 12.7378 1.50511 12.6537 1.37957 12.514L0.431289 11.4608C0.305813 11.3211 0.24097 11.1372 0.251015 10.9497C0.26106 10.7622 0.345172 10.5863 0.484857 10.4608L11.8182 0.455544C12.1425 0.16234 12.5641 0 13.0013 0C13.4385 0 13.8602 0.16234 14.1845 0.455544L18.6664 4.41203V2.12455C18.6664 1.93669 18.7411 1.75653 18.8739 1.62369C19.0067 1.49085 19.1869 1.41622 19.3748 1.41622H22.2081C22.396 1.41622 22.5761 1.49085 22.709 1.62369C22.8418 1.75653 22.9164 1.93669 22.9164 2.12455V8.16442L25.5147 10.459C25.6544 10.5845 25.7386 10.7603 25.7488 10.9478C25.7589 11.1354 25.6941 11.3193 25.5687 11.4591L24.6213 12.5136C24.4958 12.6533 24.3199 12.7374 24.1324 12.7474C23.9448 12.7575 23.761 12.6926 23.6212 12.5672Z" fill="black"/>
</svg>
