<svg width="26" height="26" viewBox="0 0 26 26" fill="none" xmlns="http://www.w3.org/2000/svg">
<path fill-rule="evenodd" clip-rule="evenodd" d="M7.09091 0H2.36364C1.05773 0 0 1.05773 0 2.36364V7.09091C0 8.39682 1.05773 9.45455 2.36364 9.45455H7.09091C8.39682 9.45455 9.45455 8.39682 9.45455 7.09091V2.36364C9.45455 1.05773 8.39682 0 7.09091 0ZM7.0909 7.09092H2.36363V2.36365H7.0909V7.09092ZM3.54546 5.90911H5.90909V3.54547H3.54546V5.90911Z" fill="black"/>
<path fill-rule="evenodd" clip-rule="evenodd" d="M7.09091 16.5455H2.36364C1.05773 16.5455 0 17.6032 0 18.9091V23.6364C0 24.9423 1.05773 26 2.36364 26H7.09091C8.39682 26 9.45455 24.9423 9.45455 23.6364V18.9091C9.45455 17.6032 8.39682 16.5455 7.09091 16.5455ZM7.0909 23.6364H2.36363V18.9091H7.0909V23.6364ZM3.54546 22.4546H5.90909V20.0909H3.54546V22.4546Z" fill="black"/>
<path fill-rule="evenodd" clip-rule="evenodd" d="M23.6364 0H18.9091C17.6032 0 16.5455 1.05773 16.5455 2.36364V7.09091C16.5455 8.39682 17.6032 9.45455 18.9091 9.45455H23.6364C24.9423 9.45455 26 8.39682 26 7.09091V2.36364C26 1.05773 24.9423 0 23.6364 0ZM23.6364 7.09092H18.9091V2.36365H23.6364V7.09092ZM20.0909 5.90911H22.4546V3.54547H20.0909V5.90911Z" fill="black"/>
<rect x="11.8182" y="2.36365" width="2.36364" height="2.36364" fill="black"/>
<rect x="11.8182" y="7.09088" width="2.36364" height="2.36364" fill="black"/>
<rect x="11.8182" y="11.8182" width="2.36364" height="2.36364" fill="black"/>
<rect x="7.09094" y="11.8182" width="2.36364" height="2.36364" fill="black"/>
<rect x="2.36365" y="11.8182" width="2.36364" height="2.36364" fill="black"/>
<rect x="16.5455" y="11.8182" width="2.36364" height="2.36364" fill="black"/>
<rect x="21.2727" y="11.8182" width="2.36364" height="2.36364" fill="black"/>
<rect x="14.1818" y="14.1818" width="2.36364" height="2.36364" fill="black"/>
<rect x="18.9091" y="14.1818" width="2.36364" height="2.36364" fill="black"/>
<rect x="16.5455" y="16.5455" width="2.36364" height="2.36364" fill="black"/>
<rect x="11.8182" y="16.5455" width="2.36364" height="2.36364" fill="black"/>
<rect x="14.1818" y="18.9091" width="2.36364" height="2.36364" fill="black"/>
<rect x="16.5455" y="21.2727" width="2.36364" height="2.36364" fill="black"/>
<rect x="14.1818" y="23.6364" width="2.36364" height="2.36364" fill="black"/>
<rect x="23.6364" y="14.1818" width="2.36364" height="2.36364" fill="black"/>
<rect x="23.6364" y="18.9091" width="2.36364" height="2.36364" fill="black"/>
<rect x="18.9091" y="18.9091" width="2.36364" height="2.36364" fill="black"/>
<rect x="18.9091" y="23.6364" width="2.36364" height="2.36364" fill="black"/>
<rect x="21.2727" y="21.2727" width="2.36364" height="2.36364" fill="black"/>
<rect x="21.2727" y="16.5455" width="2.36364" height="2.36364" fill="black"/>
<rect x="11.8182" y="21.2727" width="2.36364" height="2.36364" fill="black"/>
</svg>
