<svg width="13" height="12" viewBox="0 0 13 12" fill="none" xmlns="http://www.w3.org/2000/svg">
<path d="M12.9661 4.46595C12.881 4.21624 12.6475 4.03888 12.3713 4.01526L8.61913 3.69206L7.13543 0.397716C7.02603 0.156282 6.77688 0 6.50005 0C6.22323 0 5.97408 0.156282 5.86468 0.39828L4.38098 3.69206L0.628233 4.01526C0.3525 4.03944 0.119615 4.21624 0.0340186 4.46595C-0.0515776 4.71566 0.0274724 4.98956 0.236057 5.16221L3.07224 7.52178L2.23591 11.0165C2.17472 11.2735 2.27985 11.5391 2.5046 11.6932C2.62541 11.776 2.76675 11.8182 2.90928 11.8182C3.03217 11.8182 3.15406 11.7868 3.26346 11.7247L6.50005 9.88963L9.73545 11.7247C9.9722 11.8598 10.2706 11.8474 10.4949 11.6932C10.7198 11.5386 10.8248 11.2729 10.7636 11.0165L9.92727 7.52178L12.7635 5.16268C12.972 4.98956 13.0517 4.71613 12.9661 4.46595Z" fill="#E52421"/>
</svg>
